<?xml version="1.0" encoding="iso-8859-1"?>
<!-- Generator: Adobe Illustrator 19.0.0, SVG Export Plug-In . SVG Version: 6.00 Build 0)  -->
<svg version="1.1" id="Layer_1" xmlns="http://www.w3.org/2000/svg" xmlns:xlink="http://www.w3.org/1999/xlink" x="0px" y="0px"
	 viewBox="0 0 512 512" style="enable-background:new 0 0 512 512;" xml:space="preserve">
<g transform="translate(0 -1)">
	<path style="fill:#434C6D;" d="M317.793,106.959c-2.26,0-4.52-0.865-6.241-2.586L256,48.82l-55.552,55.552
		c-3.452,3.452-9.031,3.452-12.482,0c-3.452-3.452-3.452-9.031,0-12.482l61.846-61.846c3.443-3.452,9.031-3.452,12.482,0
		c0.274,0.274,0.521,0.565,0.759,0.865l60.981,60.981c3.452,3.452,3.452,9.031,0,12.482
		C322.313,106.094,320.053,106.959,317.793,106.959"/>
	<polygon style="fill:#724530;" points="0,486.545 512,486.545 512,98.131 0,98.131 	"/>
	<g>
		<path style="fill:#542D1E;" d="M0,110.614l29.069,29.069c1.721,1.721,3.981,2.586,6.241,2.586s4.52-0.865,6.241-2.586
			c3.452-3.452,3.452-9.031,0-12.482L12.482,98.132H0V110.614z"/>
		<path style="fill:#542D1E;" d="M512,98.131h-12.482L470.449,127.2c-3.452,3.452-3.452,9.031,0,12.482
			c1.721,1.721,3.981,2.586,6.241,2.586c2.26,0,4.52-0.865,6.241-2.586L512,110.613V98.131z"/>
		<path style="fill:#542D1E;" d="M512,474.062l-29.069-29.069c-3.452-3.452-9.031-3.452-12.482,0s-3.452,9.031,0,12.482
			l29.069,29.069H512V474.062z"/>
		<path style="fill:#542D1E;" d="M29.069,444.993L0,474.063v12.482h12.482l29.069-29.069c3.452-3.452,3.452-9.031,0-12.482
			C38.1,441.542,32.521,441.542,29.069,444.993"/>
	</g>
	<polygon style="fill:#ECE8D8;" points="35.31,451.234 476.69,451.234 476.69,133.441 35.31,133.441 	"/>
	<path style="fill:#F0CE49;" d="M317.793,230.545c0-34.127-27.666-61.793-61.793-61.793s-61.793,27.666-61.793,61.793
		s27.666,61.793,61.793,61.793S317.793,264.672,317.793,230.545"/>
	<g>
		<path style="fill:#F8E7A1;" d="M229.517,239.372c-4.882,0-8.828-3.946-8.828-8.828c0-19.474,15.837-35.31,35.31-35.31
			c4.882,0,8.828,3.946,8.828,8.828s-3.946,8.828-8.828,8.828c-9.737,0-17.655,7.918-17.655,17.655
			C238.345,235.426,234.399,239.372,229.517,239.372"/>
		<path style="fill:#F8E7A1;" d="M256,265.855c-4.882,0-8.828-3.946-8.828-8.828s3.946-8.828,8.828-8.828
			c9.737,0,17.655-7.918,17.655-17.655c0-4.882,3.946-8.828,8.828-8.828s8.828,3.946,8.828,8.828
			C291.31,250.018,275.474,265.855,256,265.855"/>
	</g>
	<g>
		<path style="fill:#C9B693;" d="M264.828,362.959h-88.276c-4.882,0-8.828-3.946-8.828-8.828c0-4.882,3.946-8.828,8.828-8.828
			h88.276c4.882,0,8.828,3.946,8.828,8.828C273.655,359.013,269.709,362.959,264.828,362.959"/>
		<path style="fill:#C9B693;" d="M141.241,362.959h-17.655c-4.882,0-8.828-3.946-8.828-8.828c0-4.882,3.946-8.828,8.828-8.828
			h17.655c4.882,0,8.828,3.946,8.828,8.828C150.069,359.013,146.123,362.959,141.241,362.959"/>
		<path style="fill:#C9B693;" d="M406.069,398.269h-97.103c-4.882,0-8.828-3.946-8.828-8.828c0-4.882,3.946-8.828,8.828-8.828
			h97.103c4.882,0,8.828,3.946,8.828,8.828C414.897,394.323,410.951,398.269,406.069,398.269"/>
		<path style="fill:#C9B693;" d="M397.241,371.786c-2.26,0-4.52-0.865-6.241-2.586l-13.753-13.753
			c-8.757,2.145-21.751,1.819-33.863-7.768l-20.692,13.798c-4.078,2.692-9.543,1.607-12.244-2.445
			c-2.71-4.061-1.615-9.534,2.445-12.244l26.483-17.655c3.593-2.401,8.43-1.845,11.379,1.351c12.156,13.162,24.708,7,24.841,6.947
			c3.39-1.73,7.512-1.077,10.231,1.633l17.655,17.655c3.452,3.452,3.452,9.031,0,12.482
			C401.761,370.921,399.501,371.786,397.241,371.786"/>
		<path style="fill:#C9B693;" d="M194.207,398.269h-70.621c-4.882,0-8.828-3.946-8.828-8.828c0-4.882,3.946-8.828,8.828-8.828
			h70.621c4.882,0,8.828,3.946,8.828,8.828C203.034,394.323,199.089,398.269,194.207,398.269"/>
		<path style="fill:#C9B693;" d="M264.828,398.269h-35.31c-4.882,0-8.828-3.946-8.828-8.828c0-4.882,3.946-8.828,8.828-8.828h35.31
			c4.882,0,8.828,3.946,8.828,8.828C273.655,394.323,269.709,398.269,264.828,398.269"/>
	</g>
	<g>
		<path style="fill:#D3B434;" d="M416.6,196.448l3.037-1.209H306.67c6.991,10.01,11.123,22.166,11.123,35.31
			c0,13.135-4.131,25.291-11.123,35.31h112.967l-3.037-1.218C385.818,252.327,385.818,208.763,416.6,196.448"/>
		<path style="fill:#D3B434;" d="M95.97,264.412l-3.602,1.439h112.958c-6.991-10.01-11.123-22.166-11.123-35.31
			c0-13.135,4.131-25.291,11.123-35.31H92.368l3.602,1.448C126.54,208.913,126.54,252.177,95.97,264.412"/>
	</g>
</g>
<g>
</g>
<g>
</g>
<g>
</g>
<g>
</g>
<g>
</g>
<g>
</g>
<g>
</g>
<g>
</g>
<g>
</g>
<g>
</g>
<g>
</g>
<g>
</g>
<g>
</g>
<g>
</g>
<g>
</g>
</svg>
